<?xml version="1.0" standalone="no"?>
<!DOCTYPE svg PUBLIC "-//W3C//DTD SVG 20010904//EN"
 "http://www.w3.org/TR/2001/REC-SVG-20010904/DTD/svg10.dtd">
<svg version="1.0" xmlns="http://www.w3.org/2000/svg"
 width="300.000000pt" height="300.000000pt" viewBox="0 0 300.000000 300.000000"
 preserveAspectRatio="xMidYMid meet">
<metadata>
Created by potrace 1.14, written by Peter Selinger 2001-2017
</metadata>
<g transform="translate(0.000000,300.000000) scale(0.100000,-0.100000)"
fill="#000000" stroke="none">
<path d="M562 2584 c-23 -9 -62 -35 -86 -60 -99 -99 -100 -251 -1 -349 117
-118 310 -91 388 54 30 54 34 86 14 94 -8 3 -20 26 -27 52 -7 26 -31 74 -53
107 -21 32 -37 65 -34 72 14 35 -129 56 -201 30z"/>
<path d="M2262 2584 c-23 -9 -62 -35 -86 -60 -99 -99 -100 -251 -1 -349 117
-118 310 -91 388 54 30 54 34 86 14 94 -8 3 -20 26 -27 52 -7 26 -31 74 -53
107 -21 32 -37 65 -34 72 14 35 -129 56 -201 30z"/>
<path d="M1453 1749 c-189 -35 -269 -257 -149 -414 13 -17 48 -44 77 -60 139
-75 316 -3 361 146 10 36 10 42 -4 50 -9 5 -24 33 -34 62 -9 28 -32 76 -51
104 -19 29 -36 61 -37 70 -5 35 -88 56 -163 42z"/>
<path d="M562 884 c-23 -9 -62 -35 -86 -60 -99 -99 -100 -251 -1 -349 117
-118 310 -91 388 54 30 54 34 86 14 94 -8 3 -20 26 -27 52 -7 26 -31 74 -53
107 -21 32 -37 65 -34 72 14 35 -129 56 -201 30z"/>
<path d="M2262 884 c-23 -9 -62 -35 -86 -60 -99 -99 -100 -251 -1 -349 117
-118 310 -91 388 54 30 54 34 86 14 94 -8 3 -20 26 -27 52 -7 26 -31 74 -53
107 -21 32 -37 65 -34 72 14 35 -129 56 -201 30z"/>
</g>
</svg>
